<svg width="124" height="28" viewBox="0 0 124 28" fill="none" xmlns="http://www.w3.org/2000/svg">
<path d="M36.3218 18.687C36.3218 19.2982 36.1991 19.7679 35.9537 20.096C35.7148 20.4241 35.3153 20.5882 34.7554 20.5882C34.227 20.5882 33.8527 20.4241 33.6325 20.096C33.4187 19.7679 33.3117 19.2982 33.3117 18.687V8.48617C33.3117 7.87495 33.4187 7.40528 33.6325 7.07715C33.8527 6.74902 34.227 6.58496 34.7554 6.58496C35.3153 6.58496 35.7148 6.74902 35.9537 7.07715C36.1991 7.40528 36.3218 7.87495 36.3218 8.48617V18.687Z" fill="#09355D"/>
<path d="M37.2359 15.7244C37.2359 15.0423 37.3429 14.399 37.5568 13.7942C37.7769 13.1829 38.104 12.649 38.5381 12.1921C38.9785 11.7353 39.5257 11.3718 40.18 11.1016C40.8405 10.8313 41.6142 10.6963 42.5012 10.6963C43.3504 10.6963 44.1022 10.8217 44.7564 11.0726C45.4106 11.3236 45.961 11.6742 46.4076 12.1246C46.8542 12.5685 47.1939 13.0993 47.4267 13.7169C47.6594 14.3281 47.7759 14.9973 47.7759 15.7244C47.7759 16.3999 47.6657 17.04 47.4456 17.6448C47.2254 18.2431 46.8951 18.7708 46.4548 19.2276C46.0145 19.6779 45.4641 20.0382 44.8036 20.3085C44.143 20.5722 43.3755 20.7041 42.5012 20.7041C41.6394 20.7041 40.8782 20.5787 40.2176 20.3277C39.5634 20.0704 39.0131 19.7197 38.5664 19.2757C38.1261 18.8254 37.7926 18.2979 37.5662 17.6931C37.346 17.0819 37.2359 16.4256 37.2359 15.7244ZM40.3781 15.7244C40.3781 16.149 40.4158 16.5543 40.4913 16.9403C40.5668 17.3199 40.6864 17.6545 40.8499 17.944C41.0197 18.2335 41.2399 18.4651 41.5104 18.6388C41.7809 18.8061 42.1111 18.8898 42.5012 18.8898C42.8597 18.8898 43.1711 18.8126 43.4353 18.6581C43.7058 18.5038 43.926 18.2882 44.0959 18.0115C44.272 17.7349 44.4041 17.4035 44.4921 17.0175C44.5802 16.625 44.6242 16.194 44.6242 15.7244C44.6242 15.2997 44.5833 14.8975 44.5016 14.518C44.4261 14.132 44.3035 13.7942 44.1336 13.5046C43.9637 13.2087 43.7436 12.9771 43.4731 12.8098C43.2089 12.6361 42.8849 12.5492 42.5012 12.5492C42.1174 12.5492 41.7904 12.6328 41.5198 12.8002C41.2493 12.9674 41.0292 13.1958 40.8593 13.4853C40.6895 13.7749 40.5668 14.1126 40.4913 14.4987C40.4158 14.8847 40.3781 15.2932 40.3781 15.7244Z" fill="#09355D"/>
<path d="M55.5211 18.7257C55.3512 19.0474 55.1437 19.3208 54.8983 19.546C54.6593 19.7712 54.3919 19.9578 54.0963 20.1058C53.807 20.2473 53.4956 20.3534 53.1622 20.4242C52.835 20.4886 52.4985 20.5208 52.1525 20.5208C51.5737 20.5208 51.0454 20.4146 50.5673 20.2022C50.0892 19.9899 49.6772 19.6843 49.3312 19.2855C48.9915 18.8801 48.7273 18.3847 48.5386 17.7992C48.3498 17.2137 48.2555 16.5446 48.2555 15.7919C48.2555 15.0842 48.3436 14.4215 48.5197 13.8038C48.6958 13.1862 48.9506 12.649 49.284 12.1922C49.6237 11.7354 50.0389 11.3751 50.5296 11.1113C51.0202 10.8475 51.5801 10.7156 52.2091 10.7156C52.9262 10.7156 53.5616 10.8571 54.1152 11.1402C54.675 11.4233 55.1563 11.8866 55.5589 12.5299V12.279C55.5589 11.8158 55.6815 11.4684 55.9269 11.2367C56.1785 10.9987 56.5245 10.8796 56.9648 10.8796C57.229 10.8796 57.4523 10.9247 57.6348 11.0148C57.8171 11.0984 57.9618 11.2271 58.0688 11.4008C58.1758 11.5681 58.2512 11.7772 58.2953 12.0281C58.3456 12.2725 58.3707 12.5525 58.3707 12.8677V19.3337C58.3707 20.1186 58.2733 20.8199 58.0783 21.4375C57.8895 22.0552 57.5939 22.5764 57.1913 23.001C56.7887 23.4256 56.2729 23.7473 55.6438 23.9661C55.0147 24.1912 54.2662 24.3038 53.3981 24.3038C52.7879 24.3038 52.2469 24.2749 51.775 24.2169C51.3096 24.1655 50.907 24.0851 50.5673 23.9757C50.2276 23.8534 49.9697 23.7184 49.7935 23.5704C49.6237 23.4224 49.5388 23.2293 49.5388 22.9913C49.5388 22.8562 49.5576 22.7276 49.5954 22.6053C49.6331 22.4831 49.6898 22.3737 49.7652 22.2772C49.847 22.1871 49.9508 22.1131 50.0767 22.0552C50.2087 22.0038 50.3691 21.978 50.5578 21.978C50.7591 21.978 50.9604 21.9908 51.1617 22.0166C51.3693 22.0423 51.5832 22.0681 51.8034 22.0938C52.0298 22.126 52.2657 22.1549 52.5111 22.1807C52.7627 22.2064 53.0332 22.2193 53.3225 22.2193C53.6685 22.2193 53.9768 22.1839 54.2473 22.1131C54.5178 22.0423 54.7473 21.9169 54.9361 21.7367C55.1248 21.5566 55.2695 21.3153 55.3702 21.0129C55.4708 20.7169 55.5211 20.3374 55.5211 19.8741V18.7257ZM55.5211 15.7244C55.5211 15.2546 55.4865 14.8268 55.4173 14.4408C55.3545 14.0547 55.2443 13.7266 55.087 13.4564C54.9298 13.1797 54.7191 12.9674 54.4549 12.8194C54.1906 12.665 53.8604 12.5879 53.4641 12.5879C53.0741 12.5879 52.7501 12.6682 52.4922 12.8291C52.2406 12.9899 52.0393 13.2119 51.8883 13.495C51.7374 13.7781 51.6304 14.1094 51.5675 14.4891C51.5109 14.8686 51.4826 15.274 51.4826 15.705C51.4826 16.6894 51.6524 17.4293 51.9921 17.9247C52.3318 18.4201 52.8256 18.6678 53.4735 18.6678C53.7755 18.6614 54.0492 18.6034 54.2944 18.4941C54.546 18.3783 54.7631 18.2014 54.9455 17.9633C55.128 17.7252 55.2695 17.4228 55.3702 17.0561C55.4708 16.6894 55.5211 16.2455 55.5211 15.7244Z" fill="#09355D"/>
<path d="M59.2367 15.7244C59.2367 15.0423 59.3437 14.399 59.5575 13.7942C59.7777 13.1829 60.1048 12.649 60.5389 12.1921C60.9792 11.7353 61.5265 11.3718 62.1807 11.1016C62.8413 10.8313 63.615 10.6963 64.502 10.6963C65.3511 10.6963 66.1029 10.8217 66.7571 11.0726C67.4113 11.3236 67.9617 11.6742 68.4084 12.1246C68.855 12.5685 69.1947 13.0993 69.4274 13.7169C69.6602 14.3281 69.7766 14.9973 69.7766 15.7244C69.7766 16.3999 69.6665 17.04 69.4463 17.6448C69.2261 18.2431 68.8959 18.7708 68.4555 19.2276C68.0152 19.6779 67.4648 20.0382 66.8043 20.3085C66.1438 20.5722 65.3763 20.7041 64.502 20.7041C63.6401 20.7041 62.8789 20.5787 62.2184 20.3277C61.5642 20.0704 61.0138 19.7197 60.5671 19.2757C60.1269 18.8254 59.7934 18.2979 59.5669 17.6931C59.3468 17.0819 59.2367 16.4256 59.2367 15.7244ZM62.3788 15.7244C62.3788 16.149 62.4166 16.5543 62.4921 16.9403C62.5676 17.3199 62.6871 17.6545 62.8507 17.944C63.0205 18.2335 63.2406 18.4651 63.5112 18.6388C63.7816 18.8061 64.1119 18.8898 64.502 18.8898C64.8605 18.8898 65.1719 18.8126 65.4361 18.6581C65.7065 18.5038 65.9268 18.2882 66.0966 18.0115C66.2727 17.7349 66.4048 17.4035 66.4929 17.0175C66.581 16.625 66.625 16.194 66.625 15.7244C66.625 15.2997 66.5841 14.8975 66.5023 14.518C66.4269 14.132 66.3042 13.7942 66.1343 13.5046C65.9645 13.2087 65.7443 12.9771 65.4738 12.8098C65.2096 12.6361 64.8856 12.5492 64.502 12.5492C64.1182 12.5492 63.7911 12.6328 63.5206 12.8002C63.2501 12.9674 63.0299 13.1958 62.8601 13.4853C62.6903 13.7749 62.5676 14.1126 62.4921 14.4987C62.4166 14.8847 62.3788 15.2932 62.3788 15.7244Z" fill="#09355D"/>
<path d="M73.8235 7.44395C73.8235 7.65628 73.7763 7.84607 73.682 8.01335C73.5876 8.17419 73.465 8.30927 73.314 8.41872C73.163 8.52808 72.9868 8.61167 72.7855 8.66956C72.5906 8.72103 72.3893 8.74681 72.1816 8.74681C71.9615 8.74681 71.7508 8.71782 71.5495 8.65993C71.3545 8.60203 71.1815 8.51845 71.0305 8.409C70.8796 8.29321 70.76 8.15489 70.6719 7.99405C70.5839 7.8332 70.5399 7.64984 70.5399 7.44395C70.5399 7.25737 70.5808 7.08688 70.6625 6.93247C70.7506 6.77162 70.8669 6.6333 71.0116 6.51748C71.1563 6.40168 71.3294 6.3116 71.5307 6.24727C71.732 6.18292 71.9521 6.15076 72.1912 6.15076C72.3987 6.15076 72.6 6.17971 72.795 6.23761C72.9963 6.29552 73.1724 6.37915 73.3234 6.48854C73.4744 6.59791 73.594 6.73302 73.682 6.89386C73.7763 7.05471 73.8235 7.23807 73.8235 7.44395ZM73.682 18.6871C73.682 19.2983 73.5593 19.7679 73.314 20.096C73.0749 20.4242 72.6755 20.5883 72.1156 20.5883C71.5873 20.5883 71.2129 20.4242 70.9928 20.096C70.7789 19.7679 70.6719 19.2983 70.6719 18.6871V12.7808C70.6719 12.1696 70.7789 11.6999 70.9928 11.3718C71.2129 11.0437 71.5873 10.8796 72.1156 10.8796C72.6755 10.8796 73.0749 11.0437 73.314 11.3718C73.5593 11.6999 73.682 12.1696 73.682 12.7808V18.6871Z" fill="#09355D"/>
<path d="M78.021 15.7049C78.021 16.136 78.0524 16.5381 78.1153 16.9113C78.1845 17.2844 78.2977 17.6125 78.455 17.8956C78.6186 18.1723 78.8325 18.391 79.0966 18.5518C79.3671 18.7128 79.7005 18.7931 80.0968 18.7931C80.4617 18.7931 80.7668 18.716 81.0124 18.5616C81.2636 18.4007 81.4649 18.1819 81.6162 17.9053C81.7668 17.6222 81.8739 17.2908 81.9367 16.9113C82.006 16.5316 82.0406 16.1199 82.0406 15.676C82.0406 15.3221 82.0156 14.9618 81.9649 14.5951C81.915 14.2219 81.8208 13.8842 81.6823 13.5818C81.5438 13.2794 81.3521 13.0316 81.1066 12.8386C80.861 12.6456 80.5405 12.5491 80.144 12.5491C79.7477 12.5491 79.4111 12.6134 79.1344 12.7422C78.8639 12.8708 78.6437 13.067 78.4739 13.3308C78.3103 13.5946 78.1939 13.926 78.1248 14.3248C78.0555 14.7173 78.021 15.1773 78.021 15.7049ZM78.0116 12.7807C78.1688 12.4398 78.3701 12.1406 78.6155 11.8832C78.8607 11.6259 79.1313 11.4103 79.4269 11.2366C79.7226 11.0629 80.0308 10.9342 80.3516 10.8506C80.679 10.7605 81.0027 10.7155 81.3232 10.7155C81.9021 10.7155 82.4247 10.8474 82.8901 11.1112C83.3555 11.3749 83.7516 11.7352 84.0785 12.192C84.4119 12.6424 84.6671 13.1764 84.8435 13.7941C85.019 14.4053 85.1076 15.0616 85.1076 15.7628C85.1076 16.4898 85.0126 17.1557 84.8241 17.7605C84.6422 18.3653 84.3805 18.8864 84.0407 19.3239C83.7073 19.755 83.3047 20.0927 82.8329 20.3372C82.3675 20.5818 81.8489 20.704 81.2765 20.704C80.5719 20.704 79.9427 20.5367 79.3892 20.2021C78.8356 19.8676 78.3764 19.3979 78.0116 18.7931V22.2674C78.0116 22.8786 77.8888 23.3483 77.6435 23.6764C77.4044 24.0045 77.0051 24.1686 76.4451 24.1686C75.9168 24.1686 75.5424 24.0045 75.3223 23.6764C75.1084 23.3483 75.0015 22.8786 75.0015 22.2674V12.7807C75.0015 12.1695 75.1084 11.6998 75.3223 11.3717C75.5424 11.0436 75.9168 10.8795 76.4451 10.8795C77.0051 10.8795 77.4044 11.0436 77.6435 11.3717C77.8888 11.6998 78.0116 12.1695 78.0116 12.7807Z" fill="#09355D"/>
<path d="M88.4276 13.4661C88.4276 13.7169 88.5347 13.9132 88.748 14.0547C88.9622 14.1899 89.2577 14.3024 89.6354 14.3925C89.9937 14.4761 90.3617 14.5566 90.7393 14.6338C91.1169 14.711 91.4849 14.8011 91.8432 14.904C92.2015 15.0005 92.5381 15.1163 92.8529 15.2514C93.167 15.3865 93.444 15.557 93.6831 15.7629C93.9222 15.9624 94.1107 16.2069 94.2492 16.4963C94.3876 16.7795 94.4569 17.1205 94.4569 17.5193C94.4569 18.0212 94.3562 18.4684 94.1549 18.8608C93.9536 19.2468 93.6678 19.5749 93.2966 19.8452C92.9318 20.1154 92.4946 20.3245 91.9849 20.4725C91.4752 20.6205 90.9124 20.6977 90.2956 20.7041C89.7111 20.7041 89.1474 20.6655 88.6063 20.5883C88.066 20.5175 87.5845 20.4049 87.1626 20.2505C86.7479 20.0961 86.4146 19.9063 86.1626 19.6811C85.9113 19.4495 85.7857 19.1793 85.7857 18.8705C85.7857 18.6002 85.8703 18.3911 86.0402 18.2431C86.2101 18.0952 86.4267 18.0212 86.6916 18.0212C86.7922 18.0212 86.9114 18.0405 87.0499 18.0791C87.1884 18.1177 87.339 18.166 87.5024 18.2239C87.6659 18.2817 87.839 18.3461 88.0218 18.4169C88.2102 18.4812 88.405 18.5391 88.6063 18.5906C88.8584 18.6614 89.116 18.7193 89.3801 18.7643C89.6507 18.8029 89.9277 18.8222 90.2111 18.8222C90.3866 18.8222 90.5597 18.8061 90.7296 18.774C90.8995 18.7353 91.0509 18.6807 91.183 18.6099C91.3215 18.5327 91.4342 18.4362 91.5228 18.3204C91.6105 18.2046 91.6637 18.063 91.683 17.8958C91.7015 17.8571 91.7176 17.8185 91.7297 17.7799C91.7426 17.7413 91.749 17.6963 91.749 17.6448C91.749 17.4646 91.6669 17.3038 91.5034 17.1622C91.3464 17.0208 91.1226 16.9081 90.8335 16.8245C90.3488 16.7087 89.8866 16.6026 89.4462 16.506C89.0065 16.4095 88.5975 16.3066 88.2198 16.1972C87.8486 16.0879 87.5088 15.9624 87.2005 15.8208C86.8985 15.6793 86.6408 15.5055 86.4267 15.2997C86.2197 15.0938 86.0555 14.8461 85.9363 14.5566C85.8228 14.267 85.7664 13.9164 85.7664 13.5046C85.7664 13.0607 85.8638 12.665 86.0587 12.3176C86.26 11.9637 86.5466 11.6678 86.9178 11.4297C87.289 11.1916 87.7383 11.0115 88.2673 10.8893C88.7956 10.7606 89.393 10.6963 90.0597 10.6963C91.2546 10.6963 92.1637 10.8443 92.7869 11.1402C93.4158 11.4297 93.7306 11.8093 93.7306 12.279C93.7306 12.5428 93.6452 12.7455 93.4754 12.887C93.3055 13.0221 93.1009 13.0896 92.8626 13.0896C92.7362 13.0896 92.6041 13.0672 92.4656 13.0221C92.3336 12.9706 92.1734 12.916 91.9849 12.8581C91.7957 12.7937 91.5695 12.7391 91.3053 12.694C91.0477 12.6425 90.7264 12.6168 90.3431 12.6168C90.0533 12.6168 89.7892 12.6296 89.55 12.6554C89.3173 12.6811 89.116 12.7261 88.9461 12.7904C88.7827 12.8548 88.6538 12.9416 88.5596 13.0511C88.4711 13.1605 88.4276 13.2987 88.4276 13.4661Z" fill="#09355D"/>
<path d="M98.2864 17.0078C98.2864 17.3102 98.3242 17.574 98.3999 17.7993C98.4812 18.0244 98.5916 18.2142 98.73 18.3686C98.8685 18.5166 99.0288 18.6292 99.2108 18.7064C99.4 18.7772 99.6013 18.8126 99.8146 18.8126C100.067 18.8126 100.309 18.774 100.542 18.6967C100.774 18.6196 100.979 18.5005 101.155 18.3397C101.337 18.1788 101.482 17.9761 101.589 17.7316C101.696 17.4872 101.75 17.2009 101.75 16.8728V12.7808C101.75 12.1696 101.857 11.7 102.07 11.3719C102.291 11.0438 102.665 10.8796 103.193 10.8796C103.753 10.8796 104.152 11.0438 104.391 11.3719C104.637 11.7 104.759 12.1696 104.759 12.7808V18.6871C104.759 19.2983 104.637 19.768 104.391 20.0961C104.152 20.4242 103.753 20.5883 103.193 20.5883C102.665 20.5883 102.291 20.4242 102.07 20.0961C101.857 19.768 101.75 19.2983 101.75 18.6871C101.617 18.9831 101.444 19.2533 101.23 19.4978C101.022 19.7423 100.778 19.9546 100.494 20.1347C100.217 20.3085 99.9097 20.4435 99.5699 20.54C99.2365 20.6366 98.8742 20.6848 98.4845 20.6848C98.0633 20.6848 97.6575 20.6108 97.267 20.4629C96.8837 20.3085 96.5439 20.0832 96.2484 19.7873C95.9529 19.4849 95.717 19.1117 95.5407 18.6678C95.3643 18.2239 95.2766 17.7059 95.2766 17.114V12.7808C95.2766 12.1696 95.3837 11.7 95.597 11.3719C95.8177 11.0438 96.1913 10.8796 96.7203 10.8796C97.2799 10.8796 97.6793 11.0438 97.9184 11.3719C98.164 11.7 98.2864 12.1696 98.2864 12.7808V17.0078Z" fill="#09355D"/>
<path d="M106.126 12.7808C106.126 12.1696 106.233 11.6999 106.447 11.3718C106.667 11.0438 107.041 10.8796 107.569 10.8796C108.13 10.8796 108.529 11.0438 108.768 11.3718C109.013 11.6999 109.136 12.1696 109.136 12.7808C109.262 12.472 109.432 12.1922 109.646 11.9412C109.866 11.6839 110.115 11.4652 110.391 11.285C110.674 11.1049 110.979 10.9665 111.306 10.87C111.633 10.767 111.973 10.7156 112.326 10.7156C112.653 10.7156 112.973 10.7606 113.288 10.8507C113.608 10.9343 113.905 11.0727 114.175 11.2657C114.451 11.4522 114.694 11.6903 114.902 11.9799C115.109 12.2693 115.27 12.6168 115.383 13.0221C115.578 12.5911 115.807 12.2276 116.072 11.9316C116.336 11.6356 116.622 11.3975 116.93 11.2174C117.238 11.0372 117.56 10.9086 117.893 10.8314C118.233 10.7542 118.572 10.7156 118.911 10.7156C119.314 10.7156 119.698 10.7896 120.063 10.9375C120.434 11.0855 120.758 11.3107 121.035 11.6131C121.318 11.909 121.541 12.2855 121.705 12.7423C121.875 13.1926 121.959 13.7202 121.959 14.3249V18.6871C121.959 19.2983 121.837 19.768 121.591 20.0961C121.353 20.4242 120.953 20.5883 120.393 20.5883C119.865 20.5883 119.49 20.4242 119.271 20.0961C119.056 19.768 118.949 19.2983 118.949 18.6871V14.4601C118.949 14.1705 118.911 13.9132 118.837 13.688C118.761 13.4564 118.654 13.2634 118.515 13.109C118.383 12.9482 118.226 12.8291 118.043 12.7519C117.861 12.6682 117.666 12.6264 117.459 12.6264C117.2 12.6264 116.956 12.6682 116.723 12.7519C116.49 12.8355 116.286 12.9642 116.109 13.1379C115.939 13.3117 115.801 13.5336 115.694 13.8038C115.593 14.074 115.543 14.399 115.543 14.7785V18.6871C115.543 19.2983 115.42 19.768 115.175 20.0961C114.936 20.4242 114.537 20.5883 113.976 20.5883C113.448 20.5883 113.074 20.4242 112.854 20.0961C112.64 19.768 112.533 19.2983 112.533 18.6871V14.6434C112.533 13.9808 112.397 13.4789 112.128 13.1379C111.863 12.797 111.501 12.6264 111.042 12.6264C110.772 12.6264 110.52 12.6715 110.287 12.7616C110.054 12.8516 109.853 12.9835 109.683 13.1573C109.513 13.3309 109.378 13.5465 109.277 13.8038C109.183 14.0612 109.136 14.3571 109.136 14.6917V18.6871C109.136 19.2983 109.013 19.768 108.768 20.0961C108.529 20.4242 108.13 20.5883 107.569 20.5883C107.041 20.5883 106.667 20.4242 106.447 20.0961C106.233 19.768 106.126 19.2983 106.126 18.6871V12.7808Z" fill="#09355D"/>
<path d="M13.6883 18.9412C11.0201 18.9412 8.85715 16.7289 8.85715 14C8.85715 11.2711 11.0201 9.05884 13.6883 9.05884C16.3565 9.05884 18.5195 11.2711 18.5195 14C18.5195 16.7289 16.3565 18.9412 13.6883 18.9412Z" fill="#51A3EE"/>
<path d="M4.3292 15.6879C2.92916 15.9404 1.96952 17.3236 2.50694 18.6697C3.25726 20.549 4.45428 22.2234 6.00615 23.5318C8.22519 25.4026 11.0241 26.4023 13.8994 26.351C16.7748 26.2997 19.5379 25.2007 21.6918 23.2517C23.198 21.8888 24.3372 20.1726 25.0229 18.2677C25.5141 16.9032 24.5078 15.5551 23.1 15.3528C21.6922 15.1504 20.4283 16.1985 19.7329 17.4667C19.356 18.1541 18.8667 18.7778 18.2805 19.3082C17.0447 20.4265 15.4593 21.057 13.8096 21.0864C12.1599 21.1158 10.554 20.5423 9.2808 19.4689C8.67683 18.9597 8.16657 18.3539 7.76641 17.6803C7.02821 16.4377 5.72923 15.4354 4.3292 15.6879Z" fill="#51A3EE"/>
<path d="M25.6726 15.5438C25.7343 15.038 25.766 14.5228 25.766 14.0001C25.766 7.1777 20.3586 1.64709 13.6881 1.64709C7.01764 1.64709 1.61017 7.1777 1.61017 14.0001C1.61017 14.671 1.66247 15.3294 1.76312 15.9713C2.31789 15.1946 3.18373 14.6401 4.11896 14.4714C5.13084 14.2889 6.05048 14.54 6.82805 15.0091C6.78211 14.6795 6.75834 14.3426 6.75834 14.0001C6.75834 10.0857 9.86092 6.9125 13.6881 6.9125C17.5153 6.9125 20.6178 10.0857 20.6178 14.0001C20.6178 14.2581 20.6043 14.513 20.5781 14.764C21.3392 14.2671 22.2499 13.9833 23.2676 14.1296C24.2077 14.2647 25.0917 14.7877 25.6726 15.5438Z" fill="#0E4F8B"/>
</svg>
