<svg width="106" height="26" viewBox="0 0 106 26" fill="none" xmlns="http://www.w3.org/2000/svg">
<g clip-path="url(#clip0_48_432)">
<path d="M31.973 18.5952H39.4254V16.3123H34.6218V7.71326H31.973V18.5952Z" fill="#2F234F"/>
<path d="M43.8407 17.0732C42.7782 17.0732 42.2245 16.1296 42.2245 14.7142C42.2245 13.2988 42.7782 12.34 43.8407 12.34C44.9032 12.34 45.4719 13.2988 45.4719 14.7142C45.4719 16.1296 44.9032 17.0732 43.8407 17.0732ZM43.8557 18.8387C46.3249 18.8387 47.9411 17.058 47.9411 14.7142C47.9411 12.3704 46.3249 10.5897 43.8557 10.5897C41.4015 10.5897 39.7554 12.3704 39.7554 14.7142C39.7554 17.058 41.4015 18.8387 43.8557 18.8387Z" fill="#2F234F"/>
<path d="M52.2146 21.289C53.3519 21.289 54.3546 21.0303 55.028 20.4215C55.6415 19.8584 56.0456 19.0061 56.0456 17.8342V10.8028H53.7111V11.6398H53.6812C53.2322 10.9854 52.5439 10.5745 51.5263 10.5745C49.6257 10.5745 48.3088 12.1877 48.3088 14.4707C48.3088 16.8601 49.9101 18.169 51.631 18.169C52.5588 18.169 53.1424 17.7885 53.5914 17.271H53.6512V18.0472C53.6512 18.9909 53.2173 19.5388 52.1847 19.5388C51.3766 19.5388 50.9726 19.1887 50.8379 18.7778H48.4734C48.7129 20.4063 50.1046 21.289 52.2146 21.289ZM52.1997 16.3274C51.2868 16.3274 50.6882 15.5665 50.6882 14.3946C50.6882 13.2074 51.2868 12.4465 52.1997 12.4465C53.2173 12.4465 53.756 13.3292 53.756 14.3793C53.756 15.4751 53.2622 16.3274 52.1997 16.3274Z" fill="#2F234F"/>
<path d="M60.8464 17.0732C59.7839 17.0732 59.2302 16.1296 59.2302 14.7142C59.2302 13.2988 59.7839 12.34 60.8464 12.34C61.9089 12.34 62.4773 13.2988 62.4773 14.7142C62.4773 16.1296 61.9089 17.0732 60.8464 17.0732ZM60.8614 18.8387C63.3303 18.8387 64.9465 17.058 64.9465 14.7142C64.9465 12.3704 63.3303 10.5897 60.8614 10.5897C58.4072 10.5897 56.761 12.3704 56.761 14.7142C56.761 17.058 58.4072 18.8387 60.8614 18.8387Z" fill="#2F234F"/>
<path d="M65.6589 18.5952H68.0981V10.8028H65.6589V18.5952ZM65.6589 9.72223H68.0981V7.71326H65.6589V9.72223Z" fill="#2F234F"/>
<path d="M69.1562 21.1672H71.5955V17.7885H71.6254C72.1043 18.443 72.8076 18.8387 73.7953 18.8387C75.8006 18.8387 77.1324 17.2254 77.1324 14.699C77.1324 12.3551 75.8904 10.5745 73.8552 10.5745C72.8076 10.5745 72.0594 11.0463 71.5356 11.7464H71.4907V10.8028H69.1562V21.1672ZM73.1668 16.921C72.1193 16.921 71.5207 16.0535 71.5207 14.7903C71.5207 13.527 72.0594 12.5682 73.1219 12.5682C74.1694 12.5682 74.6633 13.451 74.6633 14.7903C74.6633 16.1144 74.0946 16.921 73.1668 16.921Z" fill="#2F234F"/>
<path d="M81.1034 18.8387C83.1086 18.8387 84.5901 17.9559 84.5901 16.2513C84.5901 14.2576 83.0039 13.9075 81.657 13.6792C80.6843 13.4966 79.8164 13.4205 79.8164 12.8726C79.8164 12.3856 80.2803 12.1573 80.8789 12.1573C81.5523 12.1573 82.0162 12.3704 82.106 13.0705H84.3507C84.231 11.5333 83.0637 10.5745 80.8938 10.5745C79.0831 10.5745 77.5866 11.4268 77.5866 13.0705C77.5866 14.8968 79.0083 15.2621 80.3402 15.4904C81.3578 15.673 82.2856 15.7491 82.2856 16.4492C82.2856 16.9514 81.8217 17.2254 81.0884 17.2254C80.2803 17.2254 79.7715 16.8449 79.6817 16.0687H77.3771C77.452 17.7885 78.8586 18.8387 81.1034 18.8387Z" fill="#2F234F"/>
<path d="M87.9043 18.8235C88.9668 18.8235 89.6402 18.3974 90.1939 17.6364H90.2388V18.5952H92.5733V10.8029H90.134V15.1556C90.134 16.084 89.6252 16.7232 88.7872 16.7232C88.009 16.7232 87.6349 16.2514 87.6349 15.3991V10.8029H85.2106V15.9166C85.2106 17.6516 86.1384 18.8235 87.9043 18.8235Z" fill="#2F234F"/>
<path d="M93.6338 18.5951H96.073V14.2271C96.073 13.2988 96.522 12.6443 97.2852 12.6443C98.0184 12.6443 98.3626 13.1313 98.3626 13.9684V18.5951H100.802V14.2271C100.802 13.2988 101.236 12.6443 102.014 12.6443C102.747 12.6443 103.091 13.1313 103.091 13.9684V18.5951H105.531V13.527C105.531 11.7768 104.663 10.5745 102.927 10.5745C101.939 10.5745 101.116 11.0006 100.518 11.9442H100.488C100.099 11.1071 99.3353 10.5745 98.3327 10.5745C97.2253 10.5745 96.492 11.1071 96.0132 11.9138H95.9683V10.8028H93.6338V18.5951Z" fill="#2F234F"/>
<path fill-rule="evenodd" clip-rule="evenodd" d="M12.5341 25.5708C19.4215 25.5708 25.0047 19.8924 25.0047 12.8879C25.0047 5.88329 19.4215 0.204956 12.5341 0.204956C5.6468 0.204956 0.0635376 5.88329 0.0635376 12.8879C0.0635376 19.8924 5.6468 25.5708 12.5341 25.5708ZM14.4589 10.0041C15.5219 8.92298 15.5219 7.17014 14.4589 6.08898C13.3959 5.00784 11.6724 5.00784 10.6093 6.08898C9.54634 7.17014 9.54634 8.92298 10.6093 10.0041L12.5341 11.9617L14.4589 10.0041ZM15.3696 14.8455C16.4327 15.9266 18.1562 15.9266 19.2192 14.8455C20.2822 13.7643 20.2822 12.0115 19.2192 10.9303C18.1562 9.84922 16.4327 9.84922 15.3696 10.9303L13.4448 12.8879L15.3696 14.8455ZM14.4589 19.6868C15.5219 18.6056 15.5219 16.8528 14.4589 15.7716L12.5341 13.8141L10.6093 15.7716C9.54634 16.8528 9.54634 18.6056 10.6093 19.6868C11.6724 20.7679 13.3959 20.7679 14.4589 19.6868ZM5.84904 14.8455C4.78602 13.7643 4.78602 12.0115 5.84904 10.9303C6.91211 9.84922 8.63561 9.84922 9.69866 10.9303L11.6234 12.8879L9.69866 14.8455C8.63561 15.9266 6.91211 15.9266 5.84904 14.8455Z" fill="#7F57F1"/>
</g>
<defs>
<clipPath id="clip0_48_432">
<rect width="106" height="26" fill="white"/>
</clipPath>
</defs>
</svg>
