<svg width="106" height="26" viewBox="0 0 106 26" fill="none" xmlns="http://www.w3.org/2000/svg">
<g clip-path="url(#clip0_48_443)">
<path d="M32.3366 17.8436H39.789V15.5607H34.9853V6.96167H32.3366V17.8436Z" fill="#340E0E"/>
<path d="M44.2043 16.3216C43.1418 16.3216 42.5881 15.378 42.5881 13.9626C42.5881 12.5472 43.1418 11.5884 44.2043 11.5884C45.2668 11.5884 45.8354 12.5472 45.8354 13.9626C45.8354 15.378 45.2668 16.3216 44.2043 16.3216ZM44.2193 18.0871C46.6884 18.0871 48.3046 16.3064 48.3046 13.9626C48.3046 11.6188 46.6884 9.83813 44.2193 9.83813C41.765 9.83813 40.1189 11.6188 40.1189 13.9626C40.1189 16.3064 41.765 18.0871 44.2193 18.0871Z" fill="#340E0E"/>
<path d="M52.5783 20.5374C53.7156 20.5374 54.7183 20.2787 55.3917 19.6699C56.0052 19.1068 56.4093 18.2545 56.4093 17.0826V10.0512H54.0748V10.8882H54.0448C53.5959 10.2338 52.9075 9.82288 51.8899 9.82288C49.9894 9.82288 48.6725 11.4361 48.6725 13.7191C48.6725 16.1085 50.2737 17.4174 51.9947 17.4174C52.9225 17.4174 53.5061 17.0369 53.9551 16.5195H54.0149V17.2957C54.0149 18.2393 53.5809 18.7872 52.5484 18.7872C51.7403 18.7872 51.3362 18.4371 51.2016 18.0262H48.8371C49.0766 19.6547 50.4683 20.5374 52.5783 20.5374ZM52.5633 15.5759C51.6505 15.5759 51.0519 14.8149 51.0519 13.643C51.0519 12.4559 51.6505 11.6949 52.5633 11.6949C53.5809 11.6949 54.1197 12.5776 54.1197 13.6278C54.1197 14.7236 53.6258 15.5759 52.5633 15.5759Z" fill="#340E0E"/>
<path d="M61.2096 16.3216C60.1471 16.3216 59.5934 15.378 59.5934 13.9626C59.5934 12.5472 60.1471 11.5884 61.2096 11.5884C62.2721 11.5884 62.8408 12.5472 62.8408 13.9626C62.8408 15.378 62.2721 16.3216 61.2096 16.3216ZM61.2246 18.0871C63.6938 18.0871 65.31 16.3064 65.31 13.9626C65.31 11.6188 63.6938 9.83813 61.2246 9.83813C58.7704 9.83813 57.1243 11.6188 57.1243 13.9626C57.1243 16.3064 58.7704 18.0871 61.2246 18.0871Z" fill="#340E0E"/>
<path d="M66.0218 17.8436H68.461V10.0512H66.0218V17.8436ZM66.0218 8.97065H68.461V6.96167H66.0218V8.97065Z" fill="#340E0E"/>
<path d="M69.5198 20.4157H71.959V17.0369H71.989C72.4678 17.6914 73.1712 18.0871 74.1588 18.0871C76.1641 18.0871 77.496 16.4738 77.496 13.9474C77.496 11.6036 76.2539 9.82288 74.2187 9.82288C73.1712 9.82288 72.4229 10.2947 71.8992 10.9948H71.8543V10.0512H69.5198V20.4157ZM73.5303 16.1694C72.4828 16.1694 71.8842 15.3019 71.8842 14.0387C71.8842 12.7755 72.4229 11.8166 73.4854 11.8166C74.5329 11.8166 75.0268 12.6994 75.0268 14.0387C75.0268 15.3628 74.4581 16.1694 73.5303 16.1694Z" fill="#340E0E"/>
<path d="M81.4672 18.0871C83.4725 18.0871 84.954 17.2043 84.954 15.4998C84.954 13.506 83.3678 13.1559 82.0209 12.9277C81.0482 12.745 80.1803 12.6689 80.1803 12.121C80.1803 11.634 80.6442 11.4057 81.2428 11.4057C81.9162 11.4057 82.3801 11.6188 82.4699 12.3189H84.7146C84.5949 10.7817 83.4276 9.82288 81.2577 9.82288C79.447 9.82288 77.9505 10.6752 77.9505 12.3189C77.9505 14.1452 79.3722 14.5105 80.704 14.7388C81.7216 14.9214 82.6494 14.9975 82.6494 15.6976C82.6494 16.1999 82.1855 16.4738 81.4523 16.4738C80.6442 16.4738 80.1354 16.0933 80.0456 15.3171H77.741C77.8159 17.0369 79.2225 18.0871 81.4672 18.0871Z" fill="#340E0E"/>
<path d="M88.2674 18.072C89.3299 18.072 90.0033 17.6458 90.557 16.8848H90.6019V17.8437H92.9364V10.0513H90.4972V14.4041C90.4972 15.3324 89.9884 15.9717 89.1504 15.9717C88.3722 15.9717 87.9981 15.4999 87.9981 14.6476V10.0513H85.5738V15.165C85.5738 16.9 86.5016 18.072 88.2674 18.072Z" fill="#340E0E"/>
<path d="M93.9969 17.8436H96.4361V13.4756C96.4361 12.5472 96.885 11.8927 97.6482 11.8927C98.3815 11.8927 98.7257 12.3798 98.7257 13.2168V17.8436H101.165V13.4756C101.165 12.5472 101.599 11.8927 102.377 11.8927C103.11 11.8927 103.455 12.3798 103.455 13.2168V17.8436H105.894V12.7755C105.894 11.0252 105.026 9.82288 103.29 9.82288C102.302 9.82288 101.479 10.249 100.881 11.1926H100.851C100.462 10.3556 99.6984 9.82288 98.6958 9.82288C97.5884 9.82288 96.8551 10.3556 96.3762 11.1622H96.3314V10.0512H93.9969V17.8436Z" fill="#340E0E"/>
<path fill-rule="evenodd" clip-rule="evenodd" d="M12.8971 25.4534C19.7845 25.4534 25.3677 19.775 25.3677 12.7704C25.3677 5.76587 19.7845 0.0875244 12.8971 0.0875244C6.00981 0.0875244 0.426544 5.76587 0.426544 12.7704C0.426544 19.775 6.00981 25.4534 12.8971 25.4534ZM16.7875 5.99576C16.9769 5.31165 16.3241 4.90712 15.728 5.33908L7.40578 11.3687C6.75925 11.8372 6.86094 12.7704 7.55855 12.7704H9.75V12.7532H14.0211L10.541 14.002L9.00676 19.5451C8.81739 20.2293 9.4701 20.6338 10.0663 20.2018L18.3885 14.1722C19.035 13.7038 18.9333 12.7704 18.2357 12.7704H14.9125L16.7875 5.99576Z" fill="#F15757"/>
</g>
<defs>
<clipPath id="clip0_48_443">
<rect width="106" height="26" fill="white"/>
</clipPath>
</defs>
</svg>
